<svg width="18" height="60" viewBox="0 0 18 60" fill="none" xmlns="http://www.w3.org/2000/svg">
<g clip-path="url(#clip0)">
<rect x="-660" y="-462" width="1748" height="1421" fill="#FAFAFA"/>
<g filter="url(#filter0_d)">
<path fill-rule="evenodd" clip-rule="evenodd" d="M-183 -272C-183 -275.314 -180.314 -278 -177 -278H1018C1021.31 -278 1024 -275.314 1024 -272V611C1024 614.314 1021.31 617 1018 617H-177C-180.314 617 -183 614.314 -183 611V-272Z" fill="white"/>
</g>
<path fill-rule="evenodd" clip-rule="evenodd" d="M663 -182H0V-180H663V-182ZM663 -122H0V-120H663V-122ZM0 -62H663V-60H0V-62ZM663 -2H0V0H663V-2ZM0 58H663V60H0V58ZM663 118H0V120H663V118ZM0 178H663V180H0V178ZM663 238H0V240H663V238ZM0 298H663V300H0V298ZM663 358H0V360H663V358Z" fill="#F5F5F5"/>
</g>
<defs>
<filter id="filter0_d" x="-188" y="-281" width="1217" height="905" filterUnits="userSpaceOnUse" color-interpolation-filters="sRGB">
<feFlood flood-opacity="0" result="BackgroundImageFix"/>
<feColorMatrix in="SourceAlpha" type="matrix" values="0 0 0 0 0 0 0 0 0 0 0 0 0 0 0 0 0 0 127 0"/>
<feOffset dy="2"/>
<feGaussianBlur stdDeviation="2.5"/>
<feColorMatrix type="matrix" values="0 0 0 0 0 0 0 0 0 0 0 0 0 0 0 0 0 0 0.05 0"/>
<feBlend mode="normal" in2="BackgroundImageFix" result="effect1_dropShadow"/>
<feBlend mode="normal" in="SourceGraphic" in2="effect1_dropShadow" result="shape"/>
</filter>
<clipPath id="clip0">
<rect x="-660" y="-462" width="1748" height="1421" fill="white"/>
</clipPath>
</defs>
</svg>
